<svg width="90" height="28" viewBox="0 0 90 28" fill="none" xmlns="http://www.w3.org/2000/svg">
<path fill-rule="evenodd" clip-rule="evenodd" d="M28 12H29C29.5523 12 30 12.4477 30 13V19C30 19.5523 29.5523 20 29 20H28C27.4477 20 27 19.5523 27 19V13C27 12.4477 27.4477 12 28 12Z" fill="#D1D1D6"/>
<path fill-rule="evenodd" clip-rule="evenodd" d="M23.5 14H24.5C25.0523 14 25.5 14.4477 25.5 15V19C25.5 19.5523 25.0523 20 24.5 20H23.5C22.9477 20 22.5 19.5523 22.5 19V15C22.5 14.4477 22.9477 14 23.5 14Z" fill="#D1D1D6"/>
<path fill-rule="evenodd" clip-rule="evenodd" d="M19 15.5H20C20.5523 15.5 21 15.9477 21 16.5V19C21 19.5523 20.5523 20 20 20H19C18.4477 20 18 19.5523 18 19V16.5C18 15.9477 18.4477 15.5 19 15.5Z" fill="#D1D1D6"/>
<path fill-rule="evenodd" clip-rule="evenodd" d="M32.5 10H33.5C34.0523 10 34.5 10.4477 34.5 11V19C34.5 19.5523 34.0523 20 33.5 20H32.5C31.9477 20 31.5 19.5523 31.5 19V11C31.5 10.4477 31.9477 10 32.5 10Z" fill="#EBEBF5" fill-opacity="0.3"/>
<path fill-rule="evenodd" clip-rule="evenodd" d="M28 12H29C29.5523 12 30 12.4477 30 13V19C30 19.5523 29.5523 20 29 20H28C27.4477 20 27 19.5523 27 19V13C27 12.4477 27.4477 12 28 12Z" fill="white"/>
<path fill-rule="evenodd" clip-rule="evenodd" d="M23.5 14H24.5C25.0523 14 25.5 14.4477 25.5 15V19C25.5 19.5523 25.0523 20 24.5 20H23.5C22.9477 20 22.5 19.5523 22.5 19V15C22.5 14.4477 22.9477 14 23.5 14Z" fill="white"/>
<path fill-rule="evenodd" clip-rule="evenodd" d="M19 15.5H20C20.5523 15.5 21 15.9477 21 16.5V19C21 19.5523 20.5523 20 20 20H19C18.4477 20 18 19.5523 18 19V16.5C18 15.9477 18.4477 15.5 19 15.5Z" fill="white"/>
<path d="M46.633 16.9395C47.2725 16.9395 47.8938 17.1075 48.4413 17.4279L48.6632 17.5577C48.8314 17.6562 48.8609 17.8865 48.7231 18.024L46.829 19.9129C46.7126 20.0289 46.524 20.0289 46.4077 19.9129L44.5258 18.0362C44.3885 17.8993 44.4171 17.6701 44.5838 17.5709L44.8032 17.4405C45.3557 17.112 45.985 16.9395 46.633 16.9395Z" fill="white"/>
<path d="M46.6327 13.4697C48.2235 13.4697 49.7509 13.9975 50.9952 14.9748L51.1711 15.1129C51.3113 15.223 51.3236 15.4305 51.1974 15.5564L50.0666 16.684C49.962 16.7883 49.7965 16.8003 49.6779 16.7121L49.5401 16.6097C48.6997 15.9851 47.6863 15.6501 46.6327 15.6501C45.5725 15.6501 44.5532 15.9893 43.7101 16.621L43.5721 16.7244C43.4535 16.8133 43.2874 16.8016 43.1825 16.697L42.0521 15.5697C41.9262 15.4442 41.9381 15.2372 42.0777 15.1269L42.2525 14.9886C43.4998 14.0026 45.0342 13.4697 46.6327 13.4697Z" fill="white"/>
<path d="M46.6327 10C49.1574 10 51.5717 10.8906 53.4828 12.5229L53.6459 12.6623C53.7777 12.7749 53.7855 12.9756 53.6627 13.098L52.5356 14.2219C52.4264 14.3308 52.2519 14.3385 52.1336 14.2395L51.994 14.1228C50.4894 12.8647 48.6035 12.1804 46.6327 12.1804C44.6552 12.1804 42.7633 12.8694 41.2564 14.1354L41.1168 14.2527C40.9985 14.3521 40.8236 14.3447 40.7142 14.2356L39.5873 13.1118C39.4647 12.9895 39.4722 12.7892 39.6036 12.6765L39.7661 12.5371C41.6795 10.8959 44.1006 10 46.6327 10Z" fill="white"/>
<path d="M82.5 13V13C83.0523 13 83.5 13.4477 83.5 14V16C83.5 16.5523 83.0523 17 82.5 17V17V13Z" fill="#EBEBF5" fill-opacity="0.3"/>
<path fill-rule="evenodd" clip-rule="evenodd" d="M61.5 9H78.5C80.1569 9 81.5 10.3431 81.5 12V18C81.5 19.6569 80.1569 21 78.5 21H61.5C59.8431 21 58.5 19.6569 58.5 18V12C58.5 10.3431 59.8431 9 61.5 9ZM61.5 10C60.3954 10 59.5 10.8954 59.5 12V18C59.5 19.1046 60.3954 20 61.5 20H78.5C79.6046 20 80.5 19.1046 80.5 18V12C80.5 10.8954 79.6046 10 78.5 10H61.5Z" fill="#EBEBF5" fill-opacity="0.3"/>
<rect x="60.5" y="11" width="5" height="8" rx="1" fill="#FF0000"/>
<circle cx="27" cy="7" r="3" fill="#34C759"/>
</svg>
